<?xml version="1.0" encoding="UTF-8" standalone="no"?>
<!DOCTYPE svg PUBLIC "-//W3C//DTD SVG 1.1//EN"
 "http://www.w3.org/Graphics/SVG/1.1/DTD/svg11.dtd">
<!-- Generated by graphviz version 2.49.1 (20210923.0004)
 -->
<!-- Pages: 1 -->
<svg width="373pt" height="479pt"
 viewBox="0.00 0.00 373.00 479.00" xmlns="http://www.w3.org/2000/svg" xmlns:xlink="http://www.w3.org/1999/xlink">
<g id="graph0" class="graph" transform="scale(1 1) rotate(0) translate(4 475)">
<polygon fill="white" stroke="transparent" points="-4,4 -4,-475 369,-475 369,4 -4,4"/>
<!-- F -->
<g id="node1" class="node">
<title>F</title>
<ellipse fill="none" stroke="black" cx="27" cy="-279" rx="27" ry="18"/>
<text text-anchor="middle" x="27" y="-275.3" font-family="Times New Roman,serif" font-size="14.00">F</text>
</g>
<!-- E -->
<g id="node2" class="node">
<title>E</title>
<ellipse fill="none" stroke="black" cx="112" cy="-105" rx="27" ry="18"/>
<text text-anchor="middle" x="112" y="-101.3" font-family="Times New Roman,serif" font-size="14.00">E</text>
</g>
<!-- F&#45;&#45;E -->
<g id="edge1" class="edge">
<title>F&#45;&#45;E</title>
<path fill="none" stroke="black" d="M24.77,-260.76C22.79,-239.24 22.06,-201.88 36,-174 48.43,-149.14 74.2,-129.19 92.27,-117.49"/>
<text text-anchor="middle" x="39.5" y="-188.3" font-family="Times New Roman,serif" font-size="14.00">2</text>
</g>
<!-- D -->
<g id="node3" class="node">
<title>D</title>
<ellipse fill="none" stroke="black" cx="79" cy="-192" rx="27" ry="18"/>
<text text-anchor="middle" x="79" y="-188.3" font-family="Times New Roman,serif" font-size="14.00">D</text>
</g>
<!-- F&#45;&#45;D -->
<g id="edge2" class="edge">
<title>F&#45;&#45;D</title>
<path fill="none" stroke="black" d="M36.78,-262.01C46.08,-246.82 59.98,-224.09 69.26,-208.92"/>
<text text-anchor="middle" x="60.5" y="-231.8" font-family="Times New Roman,serif" font-size="14.00">3</text>
</g>
<!-- C -->
<g id="node10" class="node">
<title>C</title>
<ellipse fill="none" stroke="black" cx="184" cy="-18" rx="27" ry="18"/>
<text text-anchor="middle" x="184" y="-14.3" font-family="Times New Roman,serif" font-size="14.00">C</text>
</g>
<!-- E&#45;&#45;C -->
<g id="edge19" class="edge">
<title>E&#45;&#45;C</title>
<path fill="none" stroke="black" d="M124.87,-88.8C137.98,-73.33 158.17,-49.49 171.24,-34.06"/>
<text text-anchor="middle" x="155.5" y="-57.8" font-family="Times New Roman,serif" font-size="14.00">8</text>
</g>
<!-- D&#45;&#45;E -->
<g id="edge7" class="edge">
<title>D&#45;&#45;E</title>
<path fill="none" stroke="black" d="M81.76,-173.93C83.68,-164.08 86.68,-151.58 91,-141 93.68,-134.44 97.47,-127.66 101.1,-121.84"/>
<text text-anchor="middle" x="94.5" y="-144.8" font-family="Times New Roman,serif" font-size="14.00">9</text>
</g>
<!-- B -->
<g id="node9" class="node">
<title>B</title>
<ellipse fill="none" stroke="black" cx="184" cy="-105" rx="27" ry="18"/>
<text text-anchor="middle" x="184" y="-101.3" font-family="Times New Roman,serif" font-size="14.00">B</text>
</g>
<!-- D&#45;&#45;B -->
<g id="edge8" class="edge">
<title>D&#45;&#45;B</title>
<path fill="none" stroke="black" d="M90.55,-175.36C98.82,-164.84 110.64,-151.1 123,-141 135.1,-131.11 150.35,-122.36 162.58,-116.08"/>
<text text-anchor="middle" x="126.5" y="-144.8" font-family="Times New Roman,serif" font-size="14.00">1</text>
</g>
<!-- D&#45;&#45;C -->
<g id="edge9" class="edge">
<title>D&#45;&#45;C</title>
<path fill="none" stroke="black" d="M70.1,-174.64C59.68,-153.07 45.78,-114.61 62,-87 82.88,-51.46 129.83,-33.13 159.02,-24.83"/>
<text text-anchor="middle" x="69" y="-101.3" font-family="Times New Roman,serif" font-size="14.00">14</text>
</g>
<!-- G -->
<g id="node4" class="node">
<title>G</title>
<ellipse fill="none" stroke="black" cx="299" cy="-453" rx="27" ry="18"/>
<text text-anchor="middle" x="299" y="-449.3" font-family="Times New Roman,serif" font-size="14.00">G</text>
</g>
<!-- H -->
<g id="node5" class="node">
<title>H</title>
<ellipse fill="none" stroke="black" cx="338" cy="-279" rx="27" ry="18"/>
<text text-anchor="middle" x="338" y="-275.3" font-family="Times New Roman,serif" font-size="14.00">H</text>
</g>
<!-- G&#45;&#45;H -->
<g id="edge3" class="edge">
<title>G&#45;&#45;H</title>
<path fill="none" stroke="black" d="M317.56,-439.52C324.71,-433.62 332.09,-425.91 336,-417 353.6,-376.93 346.93,-323.68 341.79,-296.91"/>
<text text-anchor="middle" x="354" y="-362.3" font-family="Times New Roman,serif" font-size="14.00">15</text>
</g>
<!-- K -->
<g id="node6" class="node">
<title>K</title>
<ellipse fill="none" stroke="black" cx="181" cy="-366" rx="27" ry="18"/>
<text text-anchor="middle" x="181" y="-362.3" font-family="Times New Roman,serif" font-size="14.00">K</text>
</g>
<!-- G&#45;&#45;K -->
<g id="edge4" class="edge">
<title>G&#45;&#45;K</title>
<path fill="none" stroke="black" d="M280.46,-439.54C270.74,-432.93 258.65,-424.63 248,-417 230.89,-404.75 211.67,-390.34 198.21,-380.14"/>
<text text-anchor="middle" x="255" y="-405.8" font-family="Times New Roman,serif" font-size="14.00">10</text>
</g>
<!-- J -->
<g id="node7" class="node">
<title>J</title>
<ellipse fill="none" stroke="black" cx="151" cy="-192" rx="27" ry="18"/>
<text text-anchor="middle" x="151" y="-188.3" font-family="Times New Roman,serif" font-size="14.00">J</text>
</g>
<!-- G&#45;&#45;J -->
<g id="edge5" class="edge">
<title>G&#45;&#45;J</title>
<path fill="none" stroke="black" d="M299.43,-434.99C299.49,-399.4 295.23,-315.88 257,-261 236.5,-231.58 198.77,-211.95 174.29,-201.63"/>
<text text-anchor="middle" x="293" y="-318.8" font-family="Times New Roman,serif" font-size="14.00">19</text>
</g>
<!-- I -->
<g id="node8" class="node">
<title>I</title>
<ellipse fill="none" stroke="black" cx="221" cy="-279" rx="27" ry="18"/>
<text text-anchor="middle" x="221" y="-275.3" font-family="Times New Roman,serif" font-size="14.00">I</text>
</g>
<!-- G&#45;&#45;I -->
<g id="edge6" class="edge">
<title>G&#45;&#45;I</title>
<path fill="none" stroke="black" d="M303.53,-435.18C309.91,-407.57 318.26,-352.03 294,-315 283.37,-298.78 262.99,-289.87 246.46,-285.11"/>
<text text-anchor="middle" x="313.5" y="-362.3" font-family="Times New Roman,serif" font-size="14.00">5</text>
</g>
<!-- H&#45;&#45;J -->
<g id="edge13" class="edge">
<title>H&#45;&#45;J</title>
<path fill="none" stroke="black" d="M326.31,-262.48C316.93,-251.15 302.77,-236.38 287,-228 251.75,-209.26 237.46,-220.69 199,-210 190.65,-207.68 181.66,-204.65 173.74,-201.78"/>
<text text-anchor="middle" x="314" y="-231.8" font-family="Times New Roman,serif" font-size="14.00">17</text>
</g>
<!-- H&#45;&#45;C -->
<g id="edge14" class="edge">
<title>H&#45;&#45;C</title>
<path fill="none" stroke="black" d="M334.38,-260.97C332.01,-251.12 328.51,-238.62 324,-228 288.96,-145.49 278.25,-123.8 222,-54 215.7,-46.18 207.64,-38.5 200.56,-32.34"/>
<text text-anchor="middle" x="298" y="-144.8" font-family="Times New Roman,serif" font-size="14.00">20</text>
</g>
<!-- K&#45;&#45;J -->
<g id="edge11" class="edge">
<title>K&#45;&#45;J</title>
<path fill="none" stroke="black" d="M159.99,-354.57C140.11,-343.4 111.5,-323.61 99,-297 83.72,-264.48 114.83,-226.9 135.2,-207.02"/>
<text text-anchor="middle" x="106" y="-275.3" font-family="Times New Roman,serif" font-size="14.00">16</text>
</g>
<!-- K&#45;&#45;I -->
<g id="edge10" class="edge">
<title>K&#45;&#45;I</title>
<path fill="none" stroke="black" d="M188.71,-348.61C195.8,-333.56 206.24,-311.37 213.31,-296.34"/>
<text text-anchor="middle" x="210" y="-318.8" font-family="Times New Roman,serif" font-size="14.00">11</text>
</g>
<!-- L -->
<g id="node11" class="node">
<title>L</title>
<ellipse fill="none" stroke="black" cx="149" cy="-279" rx="27" ry="18"/>
<text text-anchor="middle" x="149" y="-275.3" font-family="Times New Roman,serif" font-size="14.00">L</text>
</g>
<!-- K&#45;&#45;L -->
<g id="edge12" class="edge">
<title>K&#45;&#45;L</title>
<path fill="none" stroke="black" d="M174.68,-348.21C169.07,-333.31 160.92,-311.65 155.31,-296.76"/>
<text text-anchor="middle" x="173" y="-318.8" font-family="Times New Roman,serif" font-size="14.00">12</text>
</g>
<!-- J&#45;&#45;E -->
<g id="edge16" class="edge">
<title>J&#45;&#45;E</title>
<path fill="none" stroke="black" d="M143.48,-174.61C136.57,-159.56 126.4,-137.37 119.5,-122.34"/>
<text text-anchor="middle" x="140" y="-144.8" font-family="Times New Roman,serif" font-size="14.00">18</text>
</g>
<!-- B&#45;&#45;C -->
<g id="edge20" class="edge">
<title>B&#45;&#45;C</title>
<path fill="none" stroke="black" d="M184,-86.8C184,-72.05 184,-50.92 184,-36.18"/>
<text text-anchor="middle" x="187.5" y="-57.8" font-family="Times New Roman,serif" font-size="14.00">7</text>
</g>
<!-- L&#45;&#45;J -->
<g id="edge15" class="edge">
<title>L&#45;&#45;J</title>
<path fill="none" stroke="black" d="M149.4,-260.8C149.75,-246.05 150.25,-224.92 150.6,-210.18"/>
<text text-anchor="middle" x="153.5" y="-231.8" font-family="Times New Roman,serif" font-size="14.00">4</text>
</g>
<!-- A -->
<g id="node12" class="node">
<title>A</title>
<ellipse fill="none" stroke="black" cx="235" cy="-192" rx="27" ry="18"/>
<text text-anchor="middle" x="235" y="-188.3" font-family="Times New Roman,serif" font-size="14.00">A</text>
</g>
<!-- A&#45;&#45;B -->
<g id="edge17" class="edge">
<title>A&#45;&#45;B</title>
<path fill="none" stroke="black" d="M225.41,-175.01C216.29,-159.82 202.65,-137.09 193.55,-121.92"/>
<text text-anchor="middle" x="219" y="-144.8" font-family="Times New Roman,serif" font-size="14.00">13</text>
</g>
<!-- A&#45;&#45;C -->
<g id="edge18" class="edge">
<title>A&#45;&#45;C</title>
<path fill="none" stroke="black" d="M233.64,-173.83C232.78,-164.16 231.55,-151.88 230,-141 226.56,-116.84 228.02,-110.05 220,-87 213.46,-68.2 202.33,-48.25 194.18,-34.86"/>
<text text-anchor="middle" x="230.5" y="-101.3" font-family="Times New Roman,serif" font-size="14.00">6</text>
</g>
</g>
</svg>
