<?xml version="1.0" encoding="UTF-8" standalone="no"?>
<!DOCTYPE svg PUBLIC "-//W3C//DTD SVG 1.1//EN"
 "http://www.w3.org/Graphics/SVG/1.1/DTD/svg11.dtd">
<!-- Generated by graphviz version 2.49.1 (20210923.0004)
 -->
<!-- Pages: 1 -->
<svg width="603pt" height="305pt"
 viewBox="0.00 0.00 603.00 305.00" xmlns="http://www.w3.org/2000/svg" xmlns:xlink="http://www.w3.org/1999/xlink">
<g id="graph0" class="graph" transform="scale(1 1) rotate(0) translate(4 301)">
<polygon fill="white" stroke="transparent" points="-4,4 -4,-301 599,-301 599,4 -4,4"/>
<!-- C -->
<g id="node1" class="node">
<title>C</title>
<ellipse fill="none" stroke="black" cx="126" cy="-192" rx="27" ry="18"/>
<text text-anchor="middle" x="126" y="-188.3" font-family="Times New Roman,serif" font-size="14.00">C</text>
</g>
<!-- E -->
<g id="node2" class="node">
<title>E</title>
<ellipse fill="none" stroke="black" cx="185" cy="-105" rx="27" ry="18"/>
<text text-anchor="middle" x="185" y="-101.3" font-family="Times New Roman,serif" font-size="14.00">E</text>
</g>
<!-- C&#45;&#45;E -->
<g id="edge1" class="edge">
<title>C&#45;&#45;E</title>
<path fill="none" stroke="black" d="M136.82,-175.41C147.4,-160.17 163.42,-137.08 174.05,-121.78"/>
<text text-anchor="middle" x="163.5" y="-144.8" font-family="Times New Roman,serif" font-size="14.00">8</text>
</g>
<!-- B -->
<g id="node3" class="node">
<title>B</title>
<ellipse fill="none" stroke="black" cx="63" cy="-105" rx="27" ry="18"/>
<text text-anchor="middle" x="63" y="-101.3" font-family="Times New Roman,serif" font-size="14.00">B</text>
</g>
<!-- C&#45;&#45;B -->
<g id="edge2" class="edge">
<title>C&#45;&#45;B</title>
<path fill="none" stroke="black" d="M114.44,-175.41C103.08,-160.07 85.82,-136.79 74.48,-121.49"/>
<text text-anchor="middle" x="102.5" y="-144.8" font-family="Times New Roman,serif" font-size="14.00">7</text>
</g>
<!-- D -->
<g id="node4" class="node">
<title>D</title>
<ellipse fill="none" stroke="black" cx="149" cy="-18" rx="27" ry="18"/>
<text text-anchor="middle" x="149" y="-14.3" font-family="Times New Roman,serif" font-size="14.00">D</text>
</g>
<!-- C&#45;&#45;D -->
<g id="edge3" class="edge">
<title>C&#45;&#45;D</title>
<path fill="none" stroke="black" d="M126.86,-174C128.05,-153.35 130.56,-117.49 135,-87 137.55,-69.47 141.79,-49.65 144.94,-35.95"/>
<text text-anchor="middle" x="142" y="-101.3" font-family="Times New Roman,serif" font-size="14.00">14</text>
</g>
<!-- H -->
<g id="node5" class="node">
<title>H</title>
<ellipse fill="none" stroke="black" cx="373" cy="-105" rx="27" ry="18"/>
<text text-anchor="middle" x="373" y="-101.3" font-family="Times New Roman,serif" font-size="14.00">H</text>
</g>
<!-- C&#45;&#45;H -->
<g id="edge4" class="edge">
<title>C&#45;&#45;H</title>
<path fill="none" stroke="black" d="M149.68,-182.85C196.9,-166.6 302.24,-130.35 349.39,-114.13"/>
<text text-anchor="middle" x="272" y="-144.8" font-family="Times New Roman,serif" font-size="14.00">20</text>
</g>
<!-- A -->
<g id="node6" class="node">
<title>A</title>
<ellipse fill="none" stroke="black" cx="27" cy="-18" rx="27" ry="18"/>
<text text-anchor="middle" x="27" y="-14.3" font-family="Times New Roman,serif" font-size="14.00">A</text>
</g>
<!-- C&#45;&#45;A -->
<g id="edge5" class="edge">
<title>C&#45;&#45;A</title>
<path fill="none" stroke="black" d="M101.9,-183.33C76.34,-173.75 37.3,-154.66 20,-123 4.9,-95.37 13.56,-57.25 20.66,-35.67"/>
<text text-anchor="middle" x="23.5" y="-101.3" font-family="Times New Roman,serif" font-size="14.00">6</text>
</g>
<!-- E&#45;&#45;D -->
<g id="edge13" class="edge">
<title>E&#45;&#45;D</title>
<path fill="none" stroke="black" d="M177.89,-87.21C171.54,-72.21 162.29,-50.37 155.98,-35.47"/>
<text text-anchor="middle" x="173.5" y="-57.8" font-family="Times New Roman,serif" font-size="14.00">9</text>
</g>
<!-- J -->
<g id="node10" class="node">
<title>J</title>
<ellipse fill="none" stroke="black" cx="373" cy="-18" rx="27" ry="18"/>
<text text-anchor="middle" x="373" y="-14.3" font-family="Times New Roman,serif" font-size="14.00">J</text>
</g>
<!-- E&#45;&#45;J -->
<g id="edge12" class="edge">
<title>E&#45;&#45;J</title>
<path fill="none" stroke="black" d="M206.19,-93.56C227.3,-83.25 260.71,-67.14 290,-54 310.26,-44.91 333.58,-35.14 350.33,-28.23"/>
<text text-anchor="middle" x="297" y="-57.8" font-family="Times New Roman,serif" font-size="14.00">18</text>
</g>
<!-- B&#45;&#45;D -->
<g id="edge17" class="edge">
<title>B&#45;&#45;D</title>
<path fill="none" stroke="black" d="M74.75,-88.43C82.79,-78.19 93.95,-64.76 105,-54 113.11,-46.1 122.91,-38.17 131.19,-31.87"/>
<text text-anchor="middle" x="108.5" y="-57.8" font-family="Times New Roman,serif" font-size="14.00">1</text>
</g>
<!-- B&#45;&#45;A -->
<g id="edge18" class="edge">
<title>B&#45;&#45;A</title>
<path fill="none" stroke="black" d="M55.89,-87.21C49.54,-72.21 40.29,-50.37 33.98,-35.47"/>
<text text-anchor="middle" x="55" y="-57.8" font-family="Times New Roman,serif" font-size="14.00">13</text>
</g>
<!-- H&#45;&#45;J -->
<g id="edge20" class="edge">
<title>H&#45;&#45;J</title>
<path fill="none" stroke="black" d="M373,-86.8C373,-72.05 373,-50.92 373,-36.18"/>
<text text-anchor="middle" x="380" y="-57.8" font-family="Times New Roman,serif" font-size="14.00">17</text>
</g>
<!-- G -->
<g id="node7" class="node">
<title>G</title>
<ellipse fill="none" stroke="black" cx="447" cy="-279" rx="27" ry="18"/>
<text text-anchor="middle" x="447" y="-275.3" font-family="Times New Roman,serif" font-size="14.00">G</text>
</g>
<!-- G&#45;&#45;H -->
<g id="edge9" class="edge">
<title>G&#45;&#45;H</title>
<path fill="none" stroke="black" d="M439.9,-261.51C425.76,-228.63 394.2,-155.28 380.07,-122.44"/>
<text text-anchor="middle" x="424" y="-188.3" font-family="Times New Roman,serif" font-size="14.00">15</text>
</g>
<!-- K -->
<g id="node8" class="node">
<title>K</title>
<ellipse fill="none" stroke="black" cx="493" cy="-192" rx="27" ry="18"/>
<text text-anchor="middle" x="493" y="-188.3" font-family="Times New Roman,serif" font-size="14.00">K</text>
</g>
<!-- G&#45;&#45;K -->
<g id="edge6" class="edge">
<title>G&#45;&#45;K</title>
<path fill="none" stroke="black" d="M455.87,-261.61C464.07,-246.46 476.18,-224.09 484.31,-209.05"/>
<text text-anchor="middle" x="479" y="-231.8" font-family="Times New Roman,serif" font-size="14.00">10</text>
</g>
<!-- I -->
<g id="node9" class="node">
<title>I</title>
<ellipse fill="none" stroke="black" cx="568" cy="-105" rx="27" ry="18"/>
<text text-anchor="middle" x="568" y="-101.3" font-family="Times New Roman,serif" font-size="14.00">I</text>
</g>
<!-- G&#45;&#45;I -->
<g id="edge7" class="edge">
<title>G&#45;&#45;I</title>
<path fill="none" stroke="black" d="M466.22,-266.07C484.48,-253.91 511.65,-233.51 529,-210 548.92,-183 559.78,-144.66 564.69,-122.86"/>
<text text-anchor="middle" x="551.5" y="-188.3" font-family="Times New Roman,serif" font-size="14.00">5</text>
</g>
<!-- G&#45;&#45;J -->
<g id="edge8" class="edge">
<title>G&#45;&#45;J</title>
<path fill="none" stroke="black" d="M432.19,-263.93C406.77,-238.62 355.75,-182.48 337,-123 327.01,-91.29 347.23,-54.64 361.21,-34.42"/>
<text text-anchor="middle" x="357" y="-144.8" font-family="Times New Roman,serif" font-size="14.00">19</text>
</g>
<!-- K&#45;&#45;I -->
<g id="edge16" class="edge">
<title>K&#45;&#45;I</title>
<path fill="none" stroke="black" d="M506.06,-176.19C519.75,-160.69 541.11,-136.47 554.83,-120.92"/>
<text text-anchor="middle" x="541" y="-144.8" font-family="Times New Roman,serif" font-size="14.00">11</text>
</g>
<!-- K&#45;&#45;J -->
<g id="edge15" class="edge">
<title>K&#45;&#45;J</title>
<path fill="none" stroke="black" d="M495.41,-173.98C497.61,-152.01 498.28,-113.49 481,-87 461.03,-56.38 421.93,-36.98 396.67,-27.06"/>
<text text-anchor="middle" x="501" y="-101.3" font-family="Times New Roman,serif" font-size="14.00">16</text>
</g>
<!-- L -->
<g id="node12" class="node">
<title>L</title>
<ellipse fill="none" stroke="black" cx="445" cy="-105" rx="27" ry="18"/>
<text text-anchor="middle" x="445" y="-101.3" font-family="Times New Roman,serif" font-size="14.00">L</text>
</g>
<!-- K&#45;&#45;L -->
<g id="edge14" class="edge">
<title>K&#45;&#45;L</title>
<path fill="none" stroke="black" d="M483.97,-175.01C475.44,-159.91 462.72,-137.38 454.15,-122.21"/>
<text text-anchor="middle" x="478" y="-144.8" font-family="Times New Roman,serif" font-size="14.00">12</text>
</g>
<!-- F -->
<g id="node11" class="node">
<title>F</title>
<ellipse fill="none" stroke="black" cx="231" cy="-192" rx="27" ry="18"/>
<text text-anchor="middle" x="231" y="-188.3" font-family="Times New Roman,serif" font-size="14.00">F</text>
</g>
<!-- F&#45;&#45;E -->
<g id="edge10" class="edge">
<title>F&#45;&#45;E</title>
<path fill="none" stroke="black" d="M222.13,-174.61C213.93,-159.46 201.82,-137.09 193.69,-122.05"/>
<text text-anchor="middle" x="214.5" y="-144.8" font-family="Times New Roman,serif" font-size="14.00">2</text>
</g>
<!-- F&#45;&#45;D -->
<g id="edge11" class="edge">
<title>F&#45;&#45;D</title>
<path fill="none" stroke="black" d="M237.07,-174.12C245.88,-146.43 258.62,-90.77 234,-54 221.03,-34.64 195.21,-25.98 175.41,-22.11"/>
<text text-anchor="middle" x="252.5" y="-101.3" font-family="Times New Roman,serif" font-size="14.00">3</text>
</g>
<!-- L&#45;&#45;J -->
<g id="edge19" class="edge">
<title>L&#45;&#45;J</title>
<path fill="none" stroke="black" d="M432.13,-88.8C419.02,-73.33 398.83,-49.49 385.76,-34.06"/>
<text text-anchor="middle" x="416.5" y="-57.8" font-family="Times New Roman,serif" font-size="14.00">4</text>
</g>
</g>
</svg>
