<?xml version="1.0" encoding="UTF-8" standalone="no"?>
<!DOCTYPE svg PUBLIC "-//W3C//DTD SVG 1.1//EN"
 "http://www.w3.org/Graphics/SVG/1.1/DTD/svg11.dtd">
<!-- Generated by graphviz version 2.49.1 (20210923.0004)
 -->
<!-- Pages: 1 -->
<svg width="420pt" height="674pt"
 viewBox="0.00 0.00 420.10 674.00" xmlns="http://www.w3.org/2000/svg" xmlns:xlink="http://www.w3.org/1999/xlink">
<g id="graph0" class="graph" transform="scale(1 1) rotate(0) translate(4 670)">
<polygon fill="white" stroke="transparent" points="-4,4 -4,-670 416.1,-670 416.1,4 -4,4"/>
<!-- E -->
<g id="node1" class="node">
<title>E</title>
<ellipse fill="none" stroke="black" cx="131.1" cy="-648" rx="27" ry="18"/>
<text text-anchor="middle" x="131.1" y="-644.3" font-family="Times New Roman,serif" font-size="14.00">E</text>
</g>
<!-- C -->
<g id="node2" class="node">
<title>C</title>
<ellipse fill="none" stroke="black" cx="111.1" cy="-213" rx="27" ry="18"/>
<text text-anchor="middle" x="111.1" y="-209.3" font-family="Times New Roman,serif" font-size="14.00">C</text>
</g>
<!-- E&#45;&#45;C -->
<g id="edge1" class="edge">
<title>E&#45;&#45;C</title>
<path fill="none" stroke="black" d="M136.8,-630.29C142.07,-613.3 149.1,-586.13 149.1,-562 149.1,-562 149.1,-562 149.1,-299 149.1,-272.81 133.89,-245.73 122.71,-229.37"/>
<text text-anchor="middle" x="152.6" y="-426.8" font-family="Times New Roman,serif" font-size="14.00">8</text>
</g>
<!-- F -->
<g id="node3" class="node">
<title>F</title>
<ellipse fill="none" stroke="black" cx="51.1" cy="-561" rx="27" ry="18"/>
<text text-anchor="middle" x="51.1" y="-557.3" font-family="Times New Roman,serif" font-size="14.00">F</text>
</g>
<!-- E&#45;&#45;F -->
<g id="edge2" class="edge">
<title>E&#45;&#45;F</title>
<path fill="none" stroke="black" d="M115.15,-633.13C108.18,-626.87 100.04,-619.26 93.1,-612 82.45,-600.85 71.27,-587.44 63.12,-577.31"/>
<text text-anchor="middle" x="96.6" y="-600.8" font-family="Times New Roman,serif" font-size="14.00">2</text>
</g>
<!-- J -->
<g id="node4" class="node">
<title>J</title>
<ellipse fill="none" stroke="black" cx="271.1" cy="-213" rx="27" ry="18"/>
<text text-anchor="middle" x="271.1" y="-209.3" font-family="Times New Roman,serif" font-size="14.00">J</text>
</g>
<!-- E&#45;&#45;J -->
<g id="edge3" class="edge">
<title>E&#45;&#45;J</title>
<path fill="none" stroke="black" d="M156.85,-642.55C214.33,-631.87 348.1,-602.66 348.1,-562 348.1,-562 348.1,-562 348.1,-299 348.1,-265.35 314.55,-239.08 291.74,-225.12"/>
<text text-anchor="middle" x="355.1" y="-426.8" font-family="Times New Roman,serif" font-size="14.00">18</text>
</g>
<!-- D -->
<g id="node5" class="node">
<title>D</title>
<ellipse fill="none" stroke="black" cx="51.1" cy="-474" rx="27" ry="18"/>
<text text-anchor="middle" x="51.1" y="-470.3" font-family="Times New Roman,serif" font-size="14.00">D</text>
</g>
<!-- E&#45;&#45;D -->
<g id="edge4" class="edge">
<title>E&#45;&#45;D</title>
<path fill="none" stroke="black" d="M124.53,-630.23C116.29,-609.51 101.49,-573.28 87.1,-543 78.5,-524.9 67.62,-504.67 60.09,-491.01"/>
<text text-anchor="middle" x="106.6" y="-557.3" font-family="Times New Roman,serif" font-size="14.00">9</text>
</g>
<!-- H -->
<g id="node10" class="node">
<title>H</title>
<ellipse fill="none" stroke="black" cx="161.1" cy="-105" rx="27" ry="18"/>
<text text-anchor="middle" x="161.1" y="-101.3" font-family="Times New Roman,serif" font-size="14.00">H</text>
</g>
<!-- C&#45;&#45;H -->
<g id="edge20" class="edge">
<title>C&#45;&#45;H</title>
<path fill="none" stroke="black" d="M118.92,-195.44C128.31,-175.52 143.98,-142.31 153.35,-122.45"/>
<text text-anchor="middle" x="150.1" y="-155.3" font-family="Times New Roman,serif" font-size="14.00">20</text>
</g>
<!-- F&#45;&#45;D -->
<g id="edge5" class="edge">
<title>F&#45;&#45;D</title>
<path fill="none" stroke="black" d="M51.1,-542.8C51.1,-528.05 51.1,-506.92 51.1,-492.18"/>
<text text-anchor="middle" x="54.6" y="-513.8" font-family="Times New Roman,serif" font-size="14.00">3</text>
</g>
<!-- K -->
<g id="node8" class="node">
<title>K</title>
<ellipse fill="none" stroke="black" cx="305.1" cy="-18" rx="27" ry="18"/>
<text text-anchor="middle" x="305.1" y="-14.3" font-family="Times New Roman,serif" font-size="14.00">K</text>
</g>
<!-- J&#45;&#45;K -->
<g id="edge13" class="edge">
<title>J&#45;&#45;K</title>
<path fill="none" stroke="black" d="M273.58,-194.98C277.15,-170.88 284.07,-125.48 291.1,-87 294.29,-69.57 298.43,-49.74 301.38,-36.01"/>
<text text-anchor="middle" x="298.1" y="-101.3" font-family="Times New Roman,serif" font-size="14.00">16</text>
</g>
<!-- J&#45;&#45;H -->
<g id="edge14" class="edge">
<title>J&#45;&#45;H</title>
<path fill="none" stroke="black" d="M263.23,-195.5C254.25,-177.21 239.71,-149.19 231.1,-141 218.01,-128.54 199.63,-119.58 184.99,-113.85"/>
<text text-anchor="middle" x="259.1" y="-155.3" font-family="Times New Roman,serif" font-size="14.00">17</text>
</g>
<!-- L -->
<g id="node11" class="node">
<title>L</title>
<ellipse fill="none" stroke="black" cx="341.1" cy="-105" rx="27" ry="18"/>
<text text-anchor="middle" x="341.1" y="-101.3" font-family="Times New Roman,serif" font-size="14.00">L</text>
</g>
<!-- J&#45;&#45;L -->
<g id="edge12" class="edge">
<title>J&#45;&#45;L</title>
<path fill="none" stroke="black" d="M282.49,-196.45C286.83,-190.43 291.77,-183.44 296.1,-177 308.66,-158.36 322.39,-136.45 331.34,-121.95"/>
<text text-anchor="middle" x="321.6" y="-155.3" font-family="Times New Roman,serif" font-size="14.00">4</text>
</g>
<!-- D&#45;&#45;C -->
<g id="edge6" class="edge">
<title>D&#45;&#45;C</title>
<path fill="none" stroke="black" d="M40.01,-457.42C31.31,-444.18 19.9,-424.32 15.1,-405 1.93,-351.95 -10.01,-330.56 15.1,-282 30.3,-252.61 64.71,-233.19 87.93,-222.88"/>
<text text-anchor="middle" x="9.1" y="-339.8" font-family="Times New Roman,serif" font-size="14.00">14</text>
</g>
<!-- B -->
<g id="node6" class="node">
<title>B</title>
<ellipse fill="none" stroke="black" cx="51.1" cy="-387" rx="27" ry="18"/>
<text text-anchor="middle" x="51.1" y="-383.3" font-family="Times New Roman,serif" font-size="14.00">B</text>
</g>
<!-- D&#45;&#45;B -->
<g id="edge7" class="edge">
<title>D&#45;&#45;B</title>
<path fill="none" stroke="black" d="M51.1,-455.8C51.1,-441.05 51.1,-419.92 51.1,-405.18"/>
<text text-anchor="middle" x="54.6" y="-426.8" font-family="Times New Roman,serif" font-size="14.00">1</text>
</g>
<!-- B&#45;&#45;C -->
<g id="edge17" class="edge">
<title>B&#45;&#45;C</title>
<path fill="none" stroke="black" d="M61.07,-370.07C69.1,-356.63 80.15,-336.65 87.1,-318 98.17,-288.31 105.16,-251.88 108.58,-230.96"/>
<text text-anchor="middle" x="101.6" y="-296.3" font-family="Times New Roman,serif" font-size="14.00">7</text>
</g>
<!-- A -->
<g id="node12" class="node">
<title>A</title>
<ellipse fill="none" stroke="black" cx="51.1" cy="-300" rx="27" ry="18"/>
<text text-anchor="middle" x="51.1" y="-296.3" font-family="Times New Roman,serif" font-size="14.00">A</text>
</g>
<!-- B&#45;&#45;A -->
<g id="edge18" class="edge">
<title>B&#45;&#45;A</title>
<path fill="none" stroke="black" d="M51.1,-368.8C51.1,-354.05 51.1,-332.92 51.1,-318.18"/>
<text text-anchor="middle" x="58.1" y="-339.8" font-family="Times New Roman,serif" font-size="14.00">13</text>
</g>
<!-- G -->
<g id="node7" class="node">
<title>G</title>
<ellipse fill="none" stroke="black" cx="238.1" cy="-300" rx="27" ry="18"/>
<text text-anchor="middle" x="238.1" y="-296.3" font-family="Times New Roman,serif" font-size="14.00">G</text>
</g>
<!-- G&#45;&#45;J -->
<g id="edge10" class="edge">
<title>G&#45;&#45;J</title>
<path fill="none" stroke="black" d="M244.62,-282.21C250.41,-267.31 258.82,-245.65 264.6,-230.76"/>
<text text-anchor="middle" x="263.1" y="-252.8" font-family="Times New Roman,serif" font-size="14.00">19</text>
</g>
<!-- G&#45;&#45;K -->
<g id="edge8" class="edge">
<title>G&#45;&#45;K</title>
<path fill="none" stroke="black" d="M230.44,-282.43C218.01,-253.17 196.44,-190.77 213.1,-141 228.26,-95.72 267.59,-53.8 289.6,-32.9"/>
<text text-anchor="middle" x="220.1" y="-155.3" font-family="Times New Roman,serif" font-size="14.00">10</text>
</g>
<!-- I -->
<g id="node9" class="node">
<title>I</title>
<ellipse fill="none" stroke="black" cx="385.1" cy="-159" rx="27" ry="18"/>
<text text-anchor="middle" x="385.1" y="-155.3" font-family="Times New Roman,serif" font-size="14.00">I</text>
</g>
<!-- G&#45;&#45;I -->
<g id="edge9" class="edge">
<title>G&#45;&#45;I</title>
<path fill="none" stroke="black" d="M253.01,-284.91C281.18,-258.27 341.96,-200.8 370.16,-174.13"/>
<text text-anchor="middle" x="292.6" y="-252.8" font-family="Times New Roman,serif" font-size="14.00">5</text>
</g>
<!-- G&#45;&#45;H -->
<g id="edge11" class="edge">
<title>G&#45;&#45;H</title>
<path fill="none" stroke="black" d="M221.62,-285.55C214.93,-279.49 207.52,-271.91 202.1,-264 171.69,-219.57 163.83,-154.06 161.81,-123.23"/>
<text text-anchor="middle" x="190.1" y="-209.3" font-family="Times New Roman,serif" font-size="14.00">15</text>
</g>
<!-- I&#45;&#45;K -->
<g id="edge15" class="edge">
<title>I&#45;&#45;K</title>
<path fill="none" stroke="black" d="M386.33,-140.75C386.67,-125.78 385.41,-103.93 377.1,-87 365.29,-62.92 341.13,-42.94 324.07,-31"/>
<text text-anchor="middle" x="392.1" y="-101.3" font-family="Times New Roman,serif" font-size="14.00">11</text>
</g>
<!-- L&#45;&#45;K -->
<g id="edge16" class="edge">
<title>L&#45;&#45;K</title>
<path fill="none" stroke="black" d="M333.99,-87.21C327.64,-72.21 318.39,-50.37 312.08,-35.47"/>
<text text-anchor="middle" x="332.1" y="-57.8" font-family="Times New Roman,serif" font-size="14.00">12</text>
</g>
<!-- A&#45;&#45;C -->
<g id="edge19" class="edge">
<title>A&#45;&#45;C</title>
<path fill="none" stroke="black" d="M62.11,-283.41C72.93,-268.07 89.37,-244.79 100.17,-229.49"/>
<text text-anchor="middle" x="88.6" y="-252.8" font-family="Times New Roman,serif" font-size="14.00">6</text>
</g>
</g>
</svg>
